solid buttons_holder
facet normal -0.0 -0.0 -1.0
  outer loop
    vertex -19.977768364157818 373.19266705869165 0.5000000000000181
    vertex -19.97776836415782 364.39281952520594 0.5000000000000181
    vertex -20.557029317243664 368.7927432919488 0.5000000000000181
  endloop
endfacet
facet normal -0.0 -0.0 -1.0
  outer loop
    vertex -19.97776836415782 364.39281952520594 0.5000000000000181
    vertex -19.977768364157818 373.19266705869165 0.5000000000000181
    vertex -18.27946118157912 360.2927432919488 0.5000000000000181
  endloop
endfacet
facet normal -0.0 -0.0 -1.0
  outer loop
    vertex -18.27946118157912 360.2927432919488 0.5000000000000181
    vertex -19.977768364157818 373.19266705869165 0.5000000000000181
    vertex -18.279461181579116 377.2927432919488 0.5000000000000181
  endloop
endfacet
facet normal -0.0 -0.0 -1.0
  outer loop
    vertex -18.27946118157912 360.2927432919488 0.5000000000000181
    vertex -18.279461181579116 377.2927432919488 0.5000000000000181
    vertex -15.57784459741497 356.7719280117775 0.5000000000000181
  endloop
endfacet
facet normal -0.0 -0.0 -1.0
  outer loop
    vertex -15.57784459741497 356.7719280117775 0.5000000000000181
    vertex -18.279461181579116 377.2927432919488 0.5000000000000181
    vertex -15.57784459741497 380.8135585721201 0.5000000000000181
  endloop
endfacet
facet normal -0.0 -0.0 -1.0
  outer loop
    vertex -15.57784459741497 356.7719280117775 0.5000000000000181
    vertex -15.57784459741497 380.8135585721201 0.5000000000000181
    vertex -12.057029317243648 383.5151751562842 0.5000000000000181
  endloop
endfacet
facet normal -0.0 -0.0 -1.0
  outer loop
    vertex -15.57784459741497 356.7719280117775 0.5000000000000181
    vertex -12.057029317243648 383.5151751562842 0.5000000000000181
    vertex -12.057029317243662 354.0703114276133 0.5000000000000181
  endloop
endfacet
facet normal -0.0 -0.0 -1.0
  outer loop
    vertex -12.057029317243662 354.0703114276133 0.5000000000000181
    vertex -12.057029317243648 383.5151751562842 0.5000000000000181
    vertex -7.956953083986518 352.37200424503465 0.5000000000000181
  endloop
endfacet
facet normal -0.0 -0.0 -1.0
  outer loop
    vertex -7.956953083986518 352.37200424503465 0.5000000000000181
    vertex -12.057029317243648 383.5151751562842 0.5000000000000181
    vertex -7.956953083986506 385.21348233886295 0.5000000000000181
  endloop
endfacet
facet normal -0.0 -0.0 -1.0
  outer loop
    vertex -7.956953083986518 352.37200424503465 0.5000000000000181
    vertex -7.956953083986506 385.21348233886295 0.5000000000000181
    vertex -3.557029317243662 351.7927432919488 0.5000000000000181
  endloop
endfacet
facet normal -0.0 -0.0 -1.0
  outer loop
    vertex -3.557029317243662 351.7927432919488 0.5000000000000181
    vertex -7.956953083986506 385.21348233886295 0.5000000000000181
    vertex -3.5570293172436585 385.7927432919488 0.5000000000000181
  endloop
endfacet
facet normal -0.0 -0.0 -1.0
  outer loop
    vertex -3.557029317243662 351.7927432919488 0.5000000000000181
    vertex -3.5570293172436585 385.7927432919488 0.5000000000000181
    vertex 0.842894449499189 352.37200424503465 0.5000000000000181
  endloop
endfacet
facet normal -0.0 -0.0 -1.0
  outer loop
    vertex 0.842894449499189 352.37200424503465 0.5000000000000181
    vertex -3.5570293172436585 385.7927432919488 0.5000000000000181
    vertex 0.8428944494992031 385.21348233886295 0.5000000000000181
  endloop
endfacet
facet normal -0.0 -0.0 -1.0
  outer loop
    vertex 0.842894449499189 352.37200424503465 0.5000000000000181
    vertex 0.8428944494992031 385.21348233886295 0.5000000000000181
    vertex 4.942970682756334 354.0703114276133 0.5000000000000181
  endloop
endfacet
facet normal -0.0 -0.0 -1.0
  outer loop
    vertex 4.942970682756334 354.0703114276133 0.5000000000000181
    vertex 0.8428944494992031 385.21348233886295 0.5000000000000181
    vertex 4.9429706827563455 383.5151751562842 0.5000000000000181
  endloop
endfacet
facet normal -0.0 -0.0 -1.0
  outer loop
    vertex 4.942970682756334 354.0703114276133 0.5000000000000181
    vertex 4.9429706827563455 383.5151751562842 0.5000000000000181
    vertex 8.463785962927645 356.7719280117775 0.5000000000000181
  endloop
endfacet
facet normal -0.0 -0.0 -1.0
  outer loop
    vertex 8.463785962927645 356.7719280117775 0.5000000000000181
    vertex 4.9429706827563455 383.5151751562842 0.5000000000000181
    vertex 8.463785962927652 380.8135585721201 0.5000000000000181
  endloop
endfacet
facet normal -0.0 -0.0 -1.0
  outer loop
    vertex 8.463785962927645 356.7719280117775 0.5000000000000181
    vertex 8.463785962927652 380.8135585721201 0.5000000000000181
    vertex 11.165402547091793 360.2927432919488 0.5000000000000181
  endloop
endfacet
facet normal -0.0 -0.0 -1.0
  outer loop
    vertex 11.165402547091793 360.2927432919488 0.5000000000000181
    vertex 8.463785962927652 380.8135585721201 0.5000000000000181
    vertex 11.1654025470918 377.2927432919488 0.5000000000000181
  endloop
endfacet
facet normal -0.0 -0.0 -1.0
  outer loop
    vertex 11.165402547091793 360.2927432919488 0.5000000000000181
    vertex 11.1654025470918 377.2927432919488 0.5000000000000181
    vertex 12.863709729670497 364.39281952520594 0.5000000000000181
  endloop
endfacet
facet normal -0.0 -0.0 -1.0
  outer loop
    vertex 12.863709729670497 364.39281952520594 0.5000000000000181
    vertex 11.1654025470918 377.2927432919488 0.5000000000000181
    vertex 12.863709729670504 373.19266705869165 0.5000000000000181
  endloop
endfacet
facet normal -0.0 -0.0 -1.0
  outer loop
    vertex 12.863709729670497 364.39281952520594 0.5000000000000181
    vertex 12.863709729670504 373.19266705869165 0.5000000000000181
    vertex 13.442970682756338 368.7927432919488 0.5000000000000181
  endloop
endfacet
facet normal 0.6087614290087233 0.7933533402912331 0.0
  outer loop
    vertex 4.9429706827563455 383.5151751562842 7.8000000000000185
    vertex 8.463785962927652 380.8135585721201 0.5000000000000181
    vertex 4.9429706827563455 383.5151751562842 0.5000000000000181
  endloop
endfacet
facet normal 0.6087614290087233 0.7933533402912331 0.0
  outer loop
    vertex 8.463785962927652 380.8135585721201 0.5000000000000181
    vertex 4.9429706827563455 383.5151751562842 7.8000000000000185
    vertex 8.463785962927652 380.8135585721201 7.8000000000000185
  endloop
endfacet
facet normal 0.3826834323650867 0.9238795325112882 0.0
  outer loop
    vertex 0.8428944494992031 385.21348233886295 2.5000000000000178
    vertex 4.9429706827563455 383.5151751562842 0.5000000000000181
    vertex 0.8428944494992031 385.21348233886295 0.5000000000000181
  endloop
endfacet
facet normal 0.3826834323650867 0.9238795325112882 0.0
  outer loop
    vertex 4.9429706827563455 383.5151751562842 0.5000000000000181
    vertex 0.8428944494992031 385.21348233886295 2.5000000000000178
    vertex 2.8929325661278478 384.36432874757355 2.5000000000000178
  endloop
endfacet
facet normal 0.3826834323650867 0.9238795325112882 0.0
  outer loop
    vertex 4.9429706827563455 383.5151751562842 0.5000000000000181
    vertex 2.8929325661278478 384.36432874757355 2.5000000000000178
    vertex 4.9429706827563455 383.5151751562842 7.8000000000000185
  endloop
endfacet
facet normal 0.3826834323650867 0.9238795325112882 0.0
  outer loop
    vertex 4.9429706827563455 383.5151751562842 7.8000000000000185
    vertex 2.8929325661278478 384.36432874757355 2.5000000000000178
    vertex 2.8929325661278478 384.36432874757355 7.8000000000000185
  endloop
endfacet
facet normal 0.13052619222005774 0.9914448613738096 0.0
  outer loop
    vertex -3.5570293172436585 385.7927432919488 2.5000000000000178
    vertex 0.8428944494992031 385.21348233886295 0.5000000000000181
    vertex -3.5570293172436585 385.7927432919488 0.5000000000000181
  endloop
endfacet
facet normal 0.13052619222005774 0.9914448613738096 0.0
  outer loop
    vertex 0.8428944494992031 385.21348233886295 0.5000000000000181
    vertex -3.5570293172436585 385.7927432919488 2.5000000000000178
    vertex 0.8428944494992031 385.21348233886295 2.5000000000000178
  endloop
endfacet
facet normal -0.13052619222005815 0.9914448613738097 0.0
  outer loop
    vertex -7.956953083986506 385.21348233886295 2.5000000000000178
    vertex -3.5570293172436585 385.7927432919488 0.5000000000000181
    vertex -7.956953083986506 385.21348233886295 0.5000000000000181
  endloop
endfacet
facet normal -0.13052619222005815 0.9914448613738097 0.0
  outer loop
    vertex -3.5570293172436585 385.7927432919488 0.5000000000000181
    vertex -7.956953083986506 385.21348233886295 2.5000000000000178
    vertex -3.5570293172436585 385.7927432919488 2.5000000000000178
  endloop
endfacet
facet normal -0.3826834323650867 0.9238795325112882 0.0
  outer loop
    vertex -7.956953083986506 385.21348233886295 2.5000000000000178
    vertex -7.956953083986506 385.21348233886295 0.5000000000000181
    vertex -10.006991200614996 384.3643287475736 2.5000000000000178
  endloop
endfacet
facet normal -0.3826834323650867 0.9238795325112882 0.0
  outer loop
    vertex -12.057029317243648 383.5151751562842 0.5000000000000181
    vertex -10.006991200614996 384.3643287475736 2.5000000000000178
    vertex -7.956953083986506 385.21348233886295 0.5000000000000181
  endloop
endfacet
facet normal -0.3826834323650867 0.9238795325112882 0.0
  outer loop
    vertex -10.006991200614996 384.3643287475736 2.5000000000000178
    vertex -12.057029317243648 383.5151751562842 0.5000000000000181
    vertex -12.057029317243648 383.5151751562842 7.8000000000000185
  endloop
endfacet
facet normal -0.3826834323650867 0.9238795325112882 0.0
  outer loop
    vertex -10.006991200614996 384.3643287475736 2.5000000000000178
    vertex -12.057029317243648 383.5151751562842 7.8000000000000185
    vertex -10.006991200614996 384.3643287475736 7.8000000000000185
  endloop
endfacet
facet normal -0.6087614290087219 0.7933533402912343 0.0
  outer loop
    vertex -15.57784459741497 380.8135585721201 7.8000000000000185
    vertex -12.057029317243648 383.5151751562842 0.5000000000000181
    vertex -15.57784459741497 380.8135585721201 0.5000000000000181
  endloop
endfacet
facet normal -0.6087614290087219 0.7933533402912343 0.0
  outer loop
    vertex -12.057029317243648 383.5151751562842 0.5000000000000181
    vertex -15.57784459741497 380.8135585721201 7.8000000000000185
    vertex -12.057029317243648 383.5151751562842 7.8000000000000185
  endloop
endfacet
facet normal -0.7933533402912338 0.6087614290087225 0.0
  outer loop
    vertex -15.57784459741497 380.8135585721201 7.8000000000000185
    vertex -18.279461181579116 377.2927432919488 0.5000000000000181
    vertex -18.279461181579116 377.2927432919488 7.8000000000000185
  endloop
endfacet
facet normal -0.7933533402912338 0.6087614290087225 0.0
  outer loop
    vertex -18.279461181579116 377.2927432919488 0.5000000000000181
    vertex -15.57784459741497 380.8135585721201 7.8000000000000185
    vertex -15.57784459741497 380.8135585721201 0.5000000000000181
  endloop
endfacet
facet normal -0.9238795325112872 0.38268343236508906 0.0
  outer loop
    vertex -18.279461181579116 377.2927432919488 7.8000000000000185
    vertex -19.12861477286847 375.2427051753202 2.5000000000000178
    vertex -19.12861477286847 375.2427051753202 7.8000000000000185
  endloop
endfacet
facet normal -0.9238795325112872 0.38268343236508906 0.0
  outer loop
    vertex -19.12861477286847 375.2427051753202 2.5000000000000178
    vertex -19.977768364157818 373.19266705869165 0.5000000000000181
    vertex -19.977768364157818 373.19266705869165 2.5000000000000178
  endloop
endfacet
facet normal -0.9238795325112872 0.38268343236508906 0.0
  outer loop
    vertex -19.977768364157818 373.19266705869165 0.5000000000000181
    vertex -19.12861477286847 375.2427051753202 2.5000000000000178
    vertex -18.279461181579116 377.2927432919488 0.5000000000000181
  endloop
endfacet
facet normal -0.9238795325112872 0.38268343236508906 0.0
  outer loop
    vertex -18.279461181579116 377.2927432919488 0.5000000000000181
    vertex -19.12861477286847 375.2427051753202 2.5000000000000178
    vertex -18.279461181579116 377.2927432919488 7.8000000000000185
  endloop
endfacet
facet normal -0.9914448613738104 0.130526192220053 0.0
  outer loop
    vertex -19.977768364157818 373.19266705869165 2.5000000000000178
    vertex -20.557029317243664 368.7927432919488 0.5000000000000181
    vertex -20.557029317243664 368.7927432919488 2.5000000000000178
  endloop
endfacet
facet normal -0.9914448613738104 0.130526192220053 0.0
  outer loop
    vertex -20.557029317243664 368.7927432919488 0.5000000000000181
    vertex -19.977768364157818 373.19266705869165 2.5000000000000178
    vertex -19.977768364157818 373.19266705869165 0.5000000000000181
  endloop
endfacet
facet normal -0.9914448613738105 -0.13052619222005174 -0.0
  outer loop
    vertex -20.557029317243664 368.7927432919488 2.5000000000000178
    vertex -19.97776836415782 364.39281952520594 0.5000000000000181
    vertex -19.97776836415782 364.39281952520594 2.5000000000000178
  endloop
endfacet
facet normal -0.9914448613738105 -0.13052619222005174 -0.0
  outer loop
    vertex -19.97776836415782 364.39281952520594 0.5000000000000181
    vertex -20.557029317243664 368.7927432919488 2.5000000000000178
    vertex -20.557029317243664 368.7927432919488 0.5000000000000181
  endloop
endfacet
facet normal -0.9238795325112872 -0.38268343236508906 -0.0
  outer loop
    vertex -19.128614772868453 362.3427814085773 7.8000000000000185
    vertex -18.27946118157912 360.2927432919488 0.5000000000000181
    vertex -18.27946118157912 360.2927432919488 7.8000000000000185
  endloop
endfacet
facet normal -0.9238795325112872 -0.38268343236508906 -0.0
  outer loop
    vertex -18.27946118157912 360.2927432919488 0.5000000000000181
    vertex -19.128614772868453 362.3427814085773 7.8000000000000185
    vertex -19.128614772868453 362.3427814085773 2.5000000000000178
  endloop
endfacet
facet normal -0.9238795325112872 -0.38268343236508906 -0.0
  outer loop
    vertex -18.27946118157912 360.2927432919488 0.5000000000000181
    vertex -19.128614772868453 362.3427814085773 2.5000000000000178
    vertex -19.97776836415782 364.39281952520594 0.5000000000000181
  endloop
endfacet
facet normal -0.9238795325112872 -0.38268343236508906 -0.0
  outer loop
    vertex -19.97776836415782 364.39281952520594 0.5000000000000181
    vertex -19.128614772868453 362.3427814085773 2.5000000000000178
    vertex -19.97776836415782 364.39281952520594 2.5000000000000178
  endloop
endfacet
facet normal -0.7933533402912333 -0.6087614290087233 -0.0
  outer loop
    vertex -18.27946118157912 360.2927432919488 7.8000000000000185
    vertex -15.57784459741497 356.7719280117775 0.5000000000000181
    vertex -15.57784459741497 356.7719280117775 7.8000000000000185
  endloop
endfacet
facet normal -0.7933533402912333 -0.6087614290087233 -0.0
  outer loop
    vertex -15.57784459741497 356.7719280117775 0.5000000000000181
    vertex -18.27946118157912 360.2927432919488 7.8000000000000185
    vertex -18.27946118157912 360.2927432919488 0.5000000000000181
  endloop
endfacet
facet normal -0.6087614290087233 -0.7933533402912331 -0.0
  outer loop
    vertex -12.057029317243662 354.0703114276133 7.8000000000000185
    vertex -15.57784459741497 356.7719280117775 0.5000000000000181
    vertex -12.057029317243662 354.0703114276133 0.5000000000000181
  endloop
endfacet
facet normal -0.6087614290087233 -0.7933533402912331 -0.0
  outer loop
    vertex -15.57784459741497 356.7719280117775 0.5000000000000181
    vertex -12.057029317243662 354.0703114276133 7.8000000000000185
    vertex -15.57784459741497 356.7719280117775 7.8000000000000185
  endloop
endfacet
facet normal -0.38268343236508645 -0.9238795325112882 -0.0
  outer loop
    vertex -7.956953083986518 352.37200424503465 2.5000000000000178
    vertex -12.057029317243662 354.0703114276133 0.5000000000000181
    vertex -7.956953083986518 352.37200424503465 0.5000000000000181
  endloop
endfacet
facet normal -0.38268343236508645 -0.9238795325112882 -0.0
  outer loop
    vertex -12.057029317243662 354.0703114276133 0.5000000000000181
    vertex -7.956953083986518 352.37200424503465 2.5000000000000178
    vertex -10.006991200615 353.2211578363239 2.5000000000000178
  endloop
endfacet
facet normal -0.38268343236508645 -0.9238795325112882 -0.0
  outer loop
    vertex -12.057029317243662 354.0703114276133 0.5000000000000181
    vertex -10.006991200615 353.2211578363239 2.5000000000000178
    vertex -12.057029317243662 354.0703114276133 7.8000000000000185
  endloop
endfacet
facet normal -0.38268343236508645 -0.9238795325112882 -0.0
  outer loop
    vertex -12.057029317243662 354.0703114276133 7.8000000000000185
    vertex -10.006991200615 353.2211578363239 2.5000000000000178
    vertex -10.006991200615 353.2211578363239 7.8000000000000185
  endloop
endfacet
facet normal -0.13052619222005793 -0.9914448613738097 -0.0
  outer loop
    vertex -3.557029317243662 351.7927432919488 2.5000000000000178
    vertex -7.956953083986518 352.37200424503465 0.5000000000000181
    vertex -3.557029317243662 351.7927432919488 0.5000000000000181
  endloop
endfacet
facet normal -0.13052619222005793 -0.9914448613738097 -0.0
  outer loop
    vertex -7.956953083986518 352.37200424503465 0.5000000000000181
    vertex -3.557029317243662 351.7927432919488 2.5000000000000178
    vertex -7.956953083986518 352.37200424503465 2.5000000000000178
  endloop
endfacet
facet normal 0.13052619222005807 -0.9914448613738097 0.0
  outer loop
    vertex 0.842894449499189 352.37200424503465 2.5000000000000178
    vertex -3.557029317243662 351.7927432919488 0.5000000000000181
    vertex 0.842894449499189 352.37200424503465 0.5000000000000181
  endloop
endfacet
facet normal 0.13052619222005807 -0.9914448613738097 0.0
  outer loop
    vertex -3.557029317243662 351.7927432919488 0.5000000000000181
    vertex 0.842894449499189 352.37200424503465 2.5000000000000178
    vertex -3.557029317243662 351.7927432919488 2.5000000000000178
  endloop
endfacet
facet normal 0.38268343236508645 -0.9238795325112882 0.0
  outer loop
    vertex 0.842894449499189 352.37200424503465 2.5000000000000178
    vertex 0.842894449499189 352.37200424503465 0.5000000000000181
    vertex 2.892932566127843 353.22115783632404 2.5000000000000178
  endloop
endfacet
facet normal 0.38268343236508645 -0.9238795325112882 0.0
  outer loop
    vertex 4.942970682756334 354.0703114276133 0.5000000000000181
    vertex 2.892932566127843 353.22115783632404 2.5000000000000178
    vertex 0.842894449499189 352.37200424503465 0.5000000000000181
  endloop
endfacet
facet normal 0.38268343236508645 -0.9238795325112882 0.0
  outer loop
    vertex 2.892932566127843 353.22115783632404 2.5000000000000178
    vertex 4.942970682756334 354.0703114276133 0.5000000000000181
    vertex 4.942970682756334 354.0703114276133 7.8000000000000185
  endloop
endfacet
facet normal 0.38268343236508645 -0.9238795325112882 0.0
  outer loop
    vertex 2.892932566127843 353.22115783632404 2.5000000000000178
    vertex 4.942970682756334 354.0703114276133 7.8000000000000185
    vertex 2.892932566127843 353.22115783632404 7.8000000000000185
  endloop
endfacet
facet normal 0.6087614290087229 -0.7933533402912334 0.0
  outer loop
    vertex 8.463785962927645 356.7719280117775 7.8000000000000185
    vertex 4.942970682756334 354.0703114276133 0.5000000000000181
    vertex 8.463785962927645 356.7719280117775 0.5000000000000181
  endloop
endfacet
facet normal 0.6087614290087229 -0.7933533402912334 0.0
  outer loop
    vertex 4.942970682756334 354.0703114276133 0.5000000000000181
    vertex 8.463785962927645 356.7719280117775 7.8000000000000185
    vertex 4.942970682756334 354.0703114276133 7.8000000000000185
  endloop
endfacet
facet normal 0.7933533402912335 -0.6087614290087229 0.0
  outer loop
    vertex 11.165402547091793 360.2927432919488 0.5000000000000181
    vertex 8.463785962927645 356.7719280117775 7.8000000000000185
    vertex 8.463785962927645 356.7719280117775 0.5000000000000181
  endloop
endfacet
facet normal 0.7933533402912335 -0.6087614290087229 0.0
  outer loop
    vertex 8.463785962927645 356.7719280117775 7.8000000000000185
    vertex 11.165402547091793 360.2927432919488 0.5000000000000181
    vertex 11.165402547091793 360.2927432919488 7.8000000000000185
  endloop
endfacet
facet normal 0.923879532511287 -0.3826834323650893 0.0
  outer loop
    vertex 11.165402547091793 360.2927432919488 0.5000000000000181
    vertex 12.014556138381154 362.3427814085774 2.5000000000000178
    vertex 11.165402547091793 360.2927432919488 7.8000000000000185
  endloop
endfacet
facet normal 0.923879532511287 -0.3826834323650893 0.0
  outer loop
    vertex 12.014556138381154 362.3427814085774 2.5000000000000178
    vertex 11.165402547091793 360.2927432919488 0.5000000000000181
    vertex 12.863709729670497 364.39281952520594 0.5000000000000181
  endloop
endfacet
facet normal 0.923879532511287 -0.3826834323650893 0.0
  outer loop
    vertex 12.014556138381154 362.3427814085774 2.5000000000000178
    vertex 12.863709729670497 364.39281952520594 0.5000000000000181
    vertex 12.863709729670497 364.39281952520594 2.5000000000000178
  endloop
endfacet
facet normal 0.923879532511287 -0.3826834323650893 0.0
  outer loop
    vertex 12.014556138381154 362.3427814085774 7.8000000000000185
    vertex 11.165402547091793 360.2927432919488 7.8000000000000185
    vertex 12.014556138381154 362.3427814085774 2.5000000000000178
  endloop
endfacet
facet normal 0.9914448613738105 -0.13052619222005174 0.0
  outer loop
    vertex 13.442970682756338 368.7927432919488 0.5000000000000181
    vertex 12.863709729670497 364.39281952520594 2.5000000000000178
    vertex 12.863709729670497 364.39281952520594 0.5000000000000181
  endloop
endfacet
facet normal 0.9914448613738105 -0.13052619222005174 0.0
  outer loop
    vertex 12.863709729670497 364.39281952520594 2.5000000000000178
    vertex 13.442970682756338 368.7927432919488 0.5000000000000181
    vertex 13.442970682756338 368.7927432919488 2.5000000000000178
  endloop
endfacet
facet normal 0.9914448613738106 0.1305261922200505 0.0
  outer loop
    vertex 12.863709729670504 373.19266705869165 0.5000000000000181
    vertex 13.442970682756338 368.7927432919488 2.5000000000000178
    vertex 13.442970682756338 368.7927432919488 0.5000000000000181
  endloop
endfacet
facet normal 0.9914448613738106 0.1305261922200505 0.0
  outer loop
    vertex 13.442970682756338 368.7927432919488 2.5000000000000178
    vertex 12.863709729670504 373.19266705869165 0.5000000000000181
    vertex 12.863709729670504 373.19266705869165 2.5000000000000178
  endloop
endfacet
facet normal 0.923879532511287 0.3826834323650893 0.0
  outer loop
    vertex 11.1654025470918 377.2927432919488 0.5000000000000181
    vertex 12.863709729670504 373.19266705869165 2.5000000000000178
    vertex 12.863709729670504 373.19266705869165 0.5000000000000181
  endloop
endfacet
facet normal 0.923879532511287 0.3826834323650893 0.0
  outer loop
    vertex 12.863709729670504 373.19266705869165 2.5000000000000178
    vertex 11.1654025470918 377.2927432919488 0.5000000000000181
    vertex 12.014556138381163 375.2427051753202 2.5000000000000178
  endloop
endfacet
facet normal 0.923879532511287 0.3826834323650893 0.0
  outer loop
    vertex 12.014556138381163 375.2427051753202 2.5000000000000178
    vertex 11.1654025470918 377.2927432919488 0.5000000000000181
    vertex 12.014556138381163 375.2427051753202 7.8000000000000185
  endloop
endfacet
facet normal 0.923879532511287 0.3826834323650893 0.0
  outer loop
    vertex 12.014556138381163 375.2427051753202 7.8000000000000185
    vertex 11.1654025470918 377.2927432919488 0.5000000000000181
    vertex 11.1654025470918 377.2927432919488 7.8000000000000185
  endloop
endfacet
facet normal 0.7933533402912336 0.6087614290087227 0.0
  outer loop
    vertex 8.463785962927652 380.8135585721201 0.5000000000000181
    vertex 11.1654025470918 377.2927432919488 7.8000000000000185
    vertex 11.1654025470918 377.2927432919488 0.5000000000000181
  endloop
endfacet
facet normal 0.7933533402912336 0.6087614290087227 0.0
  outer loop
    vertex 11.1654025470918 377.2927432919488 7.8000000000000185
    vertex 8.463785962927652 380.8135585721201 0.5000000000000181
    vertex 8.463785962927652 380.8135585721201 7.8000000000000185
  endloop
endfacet
facet normal 0.0 0.0 1.0
  outer loop
    vertex -3.5570293172435683 353.73951829194874 2.000000000000018
    vertex -3.557029317243566 359.9395182919488 2.000000000000018
    vertex -6.6570293172435555 356.83951829194876 2.000000000000018
  endloop
endfacet
facet normal 0.0 0.0 1.0
  outer loop
    vertex -3.557029317243566 359.9395182919488 2.000000000000018
    vertex -3.5570293172435683 353.73951829194874 2.000000000000018
    vertex -0.45702931724355567 356.83951829194876 2.000000000000018
  endloop
endfacet
facet normal -0.7071067811865482 -0.7071067811865468 -0.0
  outer loop
    vertex -3.557029317243566 359.9395182919488 2.5000000000000178
    vertex -0.45702931724355567 356.83951829194876 2.000000000000018
    vertex -0.45702931724355567 356.83951829194876 2.5000000000000178
  endloop
endfacet
facet normal -0.7071067811865482 -0.7071067811865468 -0.0
  outer loop
    vertex -0.45702931724355567 356.83951829194876 2.000000000000018
    vertex -3.557029317243566 359.9395182919488 2.5000000000000178
    vertex -3.557029317243566 359.9395182919488 2.000000000000018
  endloop
endfacet
facet normal 0.7071067811865507 -0.7071067811865445 -0.0
  outer loop
    vertex -3.557029317243566 359.9395182919488 2.000000000000018
    vertex -6.6570293172435555 356.83951829194876 2.5000000000000178
    vertex -6.6570293172435555 356.83951829194876 2.000000000000018
  endloop
endfacet
facet normal 0.7071067811865507 -0.7071067811865445 -0.0
  outer loop
    vertex -6.6570293172435555 356.83951829194876 2.5000000000000178
    vertex -3.557029317243566 359.9395182919488 2.000000000000018
    vertex -3.557029317243566 359.9395182919488 2.5000000000000178
  endloop
endfacet
facet normal 0.7071067811865509 0.7071067811865441 0.0
  outer loop
    vertex -6.6570293172435555 356.83951829194876 2.000000000000018
    vertex -3.5570293172435683 353.73951829194874 2.5000000000000178
    vertex -3.5570293172435683 353.73951829194874 2.000000000000018
  endloop
endfacet
facet normal 0.7071067811865509 0.7071067811865441 0.0
  outer loop
    vertex -3.5570293172435683 353.73951829194874 2.5000000000000178
    vertex -6.6570293172435555 356.83951829194876 2.000000000000018
    vertex -6.6570293172435555 356.83951829194876 2.5000000000000178
  endloop
endfacet
facet normal -0.707106781186548 0.707106781186547 -0.0
  outer loop
    vertex -0.45702931724355567 356.83951829194876 2.5000000000000178
    vertex -3.5570293172435683 353.73951829194874 2.000000000000018
    vertex -3.5570293172435683 353.73951829194874 2.5000000000000178
  endloop
endfacet
facet normal -0.707106781186548 0.707106781186547 -0.0
  outer loop
    vertex -3.5570293172435683 353.73951829194874 2.000000000000018
    vertex -0.45702931724355567 356.83951829194876 2.5000000000000178
    vertex -0.45702931724355567 356.83951829194876 2.000000000000018
  endloop
endfacet
facet normal 0.0 0.0 1.0
  outer loop
    vertex -15.51025431724366 365.6927432919488 2.000000000000018
    vertex -15.51025431724366 371.89274329194876 2.000000000000018
    vertex -18.610254317243662 368.7927432919488 2.000000000000018
  endloop
endfacet
facet normal 0.0 0.0 1.0
  outer loop
    vertex -15.51025431724366 371.89274329194876 2.000000000000018
    vertex -15.51025431724366 365.6927432919488 2.000000000000018
    vertex -12.41025431724366 368.7927432919488 2.000000000000018
  endloop
endfacet
facet normal 0.7071067811865444 -0.7071067811865508 -0.0
  outer loop
    vertex -15.51025431724366 371.89274329194876 2.5000000000000178
    vertex -18.610254317243662 368.7927432919488 2.000000000000018
    vertex -15.51025431724366 371.89274329194876 2.000000000000018
  endloop
endfacet
facet normal 0.7071067811865444 -0.7071067811865508 -0.0
  outer loop
    vertex -18.610254317243662 368.7927432919488 2.000000000000018
    vertex -15.51025431724366 371.89274329194876 2.5000000000000178
    vertex -18.610254317243662 368.7927432919488 2.5000000000000178
  endloop
endfacet
facet normal 0.7071067811865495 0.7071067811865456 0.0
  outer loop
    vertex -18.610254317243662 368.7927432919488 2.000000000000018
    vertex -15.51025431724366 365.6927432919488 2.5000000000000178
    vertex -15.51025431724366 365.6927432919488 2.000000000000018
  endloop
endfacet
facet normal 0.7071067811865495 0.7071067811865456 0.0
  outer loop
    vertex -15.51025431724366 365.6927432919488 2.5000000000000178
    vertex -18.610254317243662 368.7927432919488 2.000000000000018
    vertex -18.610254317243662 368.7927432919488 2.5000000000000178
  endloop
endfacet
facet normal -0.7071067811865495 0.7071067811865456 -0.0
  outer loop
    vertex -12.41025431724366 368.7927432919488 2.5000000000000178
    vertex -15.51025431724366 365.6927432919488 2.000000000000018
    vertex -15.51025431724366 365.6927432919488 2.5000000000000178
  endloop
endfacet
facet normal -0.7071067811865495 0.7071067811865456 -0.0
  outer loop
    vertex -15.51025431724366 365.6927432919488 2.000000000000018
    vertex -12.41025431724366 368.7927432919488 2.5000000000000178
    vertex -12.41025431724366 368.7927432919488 2.000000000000018
  endloop
endfacet
facet normal -0.7071067811865444 -0.7071067811865508 -0.0
  outer loop
    vertex -12.41025431724366 368.7927432919488 2.5000000000000178
    vertex -15.51025431724366 371.89274329194876 2.000000000000018
    vertex -12.41025431724366 368.7927432919488 2.000000000000018
  endloop
endfacet
facet normal -0.7071067811865444 -0.7071067811865508 -0.0
  outer loop
    vertex -15.51025431724366 371.89274329194876 2.000000000000018
    vertex -12.41025431724366 368.7927432919488 2.5000000000000178
    vertex -15.51025431724366 371.89274329194876 2.5000000000000178
  endloop
endfacet
facet normal 0.0 0.0 1.0
  outer loop
    vertex -3.5570293172435625 377.6459682919488 2.000000000000018
    vertex -3.55702931724355 383.8459682919488 2.000000000000018
    vertex -6.65702931724355 380.7459682919488 2.000000000000018
  endloop
endfacet
facet normal 0.0 0.0 1.0
  outer loop
    vertex -3.55702931724355 383.8459682919488 2.000000000000018
    vertex -3.5570293172435625 377.6459682919488 2.000000000000018
    vertex -0.45702931724355 380.7459682919488 2.000000000000018
  endloop
endfacet
facet normal -0.7071067811865495 -0.7071067811865456 -0.0
  outer loop
    vertex -3.55702931724355 383.8459682919488 2.5000000000000178
    vertex -0.45702931724355 380.7459682919488 2.000000000000018
    vertex -0.45702931724355 380.7459682919488 2.5000000000000178
  endloop
endfacet
facet normal -0.7071067811865495 -0.7071067811865456 -0.0
  outer loop
    vertex -0.45702931724355 380.7459682919488 2.000000000000018
    vertex -3.55702931724355 383.8459682919488 2.5000000000000178
    vertex -3.55702931724355 383.8459682919488 2.000000000000018
  endloop
endfacet
facet normal 0.7071067811865495 -0.7071067811865456 -0.0
  outer loop
    vertex -3.55702931724355 383.8459682919488 2.000000000000018
    vertex -6.65702931724355 380.7459682919488 2.5000000000000178
    vertex -6.65702931724355 380.7459682919488 2.000000000000018
  endloop
endfacet
facet normal 0.7071067811865495 -0.7071067811865456 -0.0
  outer loop
    vertex -6.65702931724355 380.7459682919488 2.5000000000000178
    vertex -3.55702931724355 383.8459682919488 2.000000000000018
    vertex -3.55702931724355 383.8459682919488 2.5000000000000178
  endloop
endfacet
facet normal 0.7071067811865509 0.7071067811865441 0.0
  outer loop
    vertex -6.65702931724355 380.7459682919488 2.000000000000018
    vertex -3.5570293172435625 377.6459682919488 2.5000000000000178
    vertex -3.5570293172435625 377.6459682919488 2.000000000000018
  endloop
endfacet
facet normal 0.7071067811865509 0.7071067811865441 0.0
  outer loop
    vertex -3.5570293172435625 377.6459682919488 2.5000000000000178
    vertex -6.65702931724355 380.7459682919488 2.000000000000018
    vertex -6.65702931724355 380.7459682919488 2.5000000000000178
  endloop
endfacet
facet normal -0.707106781186548 0.707106781186547 -0.0
  outer loop
    vertex -0.45702931724355 380.7459682919488 2.5000000000000178
    vertex -3.5570293172435625 377.6459682919488 2.000000000000018
    vertex -3.5570293172435625 377.6459682919488 2.5000000000000178
  endloop
endfacet
facet normal -0.707106781186548 0.707106781186547 -0.0
  outer loop
    vertex -3.5570293172435625 377.6459682919488 2.000000000000018
    vertex -0.45702931724355 380.7459682919488 2.5000000000000178
    vertex -0.45702931724355 380.7459682919488 2.000000000000018
  endloop
endfacet
facet normal 0.0 0.0 1.0
  outer loop
    vertex -3.5570293172436616 365.6927432919488 2.000000000000018
    vertex -3.5570293172435625 371.89274329194893 2.000000000000018
    vertex -6.657029317243661 368.7927432919488 2.000000000000018
  endloop
endfacet
facet normal 0.0 0.0 1.0
  outer loop
    vertex -3.5570293172435625 371.89274329194893 2.000000000000018
    vertex -3.5570293172436616 365.6927432919488 2.000000000000018
    vertex -0.4570293172435345 368.7927432919488 2.000000000000018
  endloop
endfacet
facet normal 0.7071067811865537 -0.7071067811865415 -0.0
  outer loop
    vertex -3.5570293172435625 371.89274329194893 2.000000000000018
    vertex -6.657029317243661 368.7927432919488 2.5000000000000178
    vertex -6.657029317243661 368.7927432919488 2.000000000000018
  endloop
endfacet
facet normal 0.7071067811865537 -0.7071067811865415 -0.0
  outer loop
    vertex -6.657029317243661 368.7927432919488 2.5000000000000178
    vertex -3.5570293172435625 371.89274329194893 2.000000000000018
    vertex -3.5570293172435625 371.89274329194893 2.5000000000000178
  endloop
endfacet
facet normal 0.7071067811865495 0.7071067811865456 0.0
  outer loop
    vertex -6.657029317243661 368.7927432919488 2.000000000000018
    vertex -3.5570293172436616 365.6927432919488 2.5000000000000178
    vertex -3.5570293172436616 365.6927432919488 2.000000000000018
  endloop
endfacet
facet normal 0.7071067811865495 0.7071067811865456 0.0
  outer loop
    vertex -3.5570293172436616 365.6927432919488 2.5000000000000178
    vertex -6.657029317243661 368.7927432919488 2.000000000000018
    vertex -6.657029317243661 368.7927432919488 2.5000000000000178
  endloop
endfacet
facet normal -0.707106781186535 0.7071067811865601 -0.0
  outer loop
    vertex -3.5570293172436616 365.6927432919488 2.5000000000000178
    vertex -0.4570293172435345 368.7927432919488 2.000000000000018
    vertex -3.5570293172436616 365.6927432919488 2.000000000000018
  endloop
endfacet
facet normal -0.707106781186535 0.7071067811865601 -0.0
  outer loop
    vertex -0.4570293172435345 368.7927432919488 2.000000000000018
    vertex -3.5570293172436616 365.6927432919488 2.5000000000000178
    vertex -0.4570293172435345 368.7927432919488 2.5000000000000178
  endloop
endfacet
facet normal -0.7071067811865617 -0.7071067811865334 -0.0
  outer loop
    vertex -3.5570293172435625 371.89274329194893 2.5000000000000178
    vertex -0.4570293172435345 368.7927432919488 2.000000000000018
    vertex -0.4570293172435345 368.7927432919488 2.5000000000000178
  endloop
endfacet
facet normal -0.7071067811865617 -0.7071067811865334 -0.0
  outer loop
    vertex -0.4570293172435345 368.7927432919488 2.000000000000018
    vertex -3.5570293172435625 371.89274329194893 2.5000000000000178
    vertex -3.5570293172435625 371.89274329194893 2.000000000000018
  endloop
endfacet
facet normal 0.0 0.0 1.0
  outer loop
    vertex 8.396195682756465 365.6927432919488 2.000000000000018
    vertex 8.396195682756465 371.8927432919488 2.000000000000018
    vertex 5.296195682756465 368.7927432919488 2.000000000000018
  endloop
endfacet
facet normal 0.0 0.0 1.0
  outer loop
    vertex 8.396195682756465 371.8927432919488 2.000000000000018
    vertex 8.396195682756465 365.6927432919488 2.000000000000018
    vertex 11.496195682756465 368.7927432919488 2.000000000000018
  endloop
endfacet
facet normal -0.7071067811865495 -0.7071067811865456 -0.0
  outer loop
    vertex 8.396195682756465 371.8927432919488 2.5000000000000178
    vertex 11.496195682756465 368.7927432919488 2.000000000000018
    vertex 11.496195682756465 368.7927432919488 2.5000000000000178
  endloop
endfacet
facet normal -0.7071067811865495 -0.7071067811865456 -0.0
  outer loop
    vertex 11.496195682756465 368.7927432919488 2.000000000000018
    vertex 8.396195682756465 371.8927432919488 2.5000000000000178
    vertex 8.396195682756465 371.8927432919488 2.000000000000018
  endloop
endfacet
facet normal 0.7071067811865495 -0.7071067811865456 -0.0
  outer loop
    vertex 8.396195682756465 371.8927432919488 2.000000000000018
    vertex 5.296195682756465 368.7927432919488 2.5000000000000178
    vertex 5.296195682756465 368.7927432919488 2.000000000000018
  endloop
endfacet
facet normal 0.7071067811865495 -0.7071067811865456 -0.0
  outer loop
    vertex 5.296195682756465 368.7927432919488 2.5000000000000178
    vertex 8.396195682756465 371.8927432919488 2.000000000000018
    vertex 8.396195682756465 371.8927432919488 2.5000000000000178
  endloop
endfacet
facet normal 0.7071067811865495 0.7071067811865456 0.0
  outer loop
    vertex 5.296195682756465 368.7927432919488 2.000000000000018
    vertex 8.396195682756465 365.6927432919488 2.5000000000000178
    vertex 8.396195682756465 365.6927432919488 2.000000000000018
  endloop
endfacet
facet normal 0.7071067811865495 0.7071067811865456 0.0
  outer loop
    vertex 8.396195682756465 365.6927432919488 2.5000000000000178
    vertex 5.296195682756465 368.7927432919488 2.000000000000018
    vertex 5.296195682756465 368.7927432919488 2.5000000000000178
  endloop
endfacet
facet normal -0.7071067811865495 0.7071067811865456 -0.0
  outer loop
    vertex 11.496195682756465 368.7927432919488 2.5000000000000178
    vertex 8.396195682756465 365.6927432919488 2.000000000000018
    vertex 8.396195682756465 365.6927432919488 2.5000000000000178
  endloop
endfacet
facet normal -0.7071067811865495 0.7071067811865456 -0.0
  outer loop
    vertex 8.396195682756465 365.6927432919488 2.000000000000018
    vertex 11.496195682756465 368.7927432919488 2.5000000000000178
    vertex 11.496195682756465 368.7927432919488 2.000000000000018
  endloop
endfacet
facet normal -0.0 -0.0 1.0
  outer loop
    vertex -3.5570293172435625 371.89274329194893 2.5000000000000178
    vertex -6.65702931724355 380.7459682919488 2.5000000000000178
    vertex -6.657029317243661 368.7927432919488 2.5000000000000178
  endloop
endfacet
facet normal -0.0 -0.0 1.0
  outer loop
    vertex -6.65702931724355 380.7459682919488 2.5000000000000178
    vertex -3.5570293172435625 371.89274329194893 2.5000000000000178
    vertex -3.5570293172435625 377.6459682919488 2.5000000000000178
  endloop
endfacet
facet normal -0.0 -0.0 1.0
  outer loop
    vertex -3.5570293172435625 377.6459682919488 2.5000000000000178
    vertex -3.5570293172435625 371.89274329194893 2.5000000000000178
    vertex -0.4570293172435345 368.7927432919488 2.5000000000000178
  endloop
endfacet
facet normal -0.0 -0.0 1.0
  outer loop
    vertex -3.5570293172435625 377.6459682919488 2.5000000000000178
    vertex -0.4570293172435345 368.7927432919488 2.5000000000000178
    vertex -0.45702931724355 380.7459682919488 2.5000000000000178
  endloop
endfacet
facet normal -0.0 -0.0 1.0
  outer loop
    vertex -9.624307768249903 383.4404492150623 2.5000000000000178
    vertex -7.956953083986506 385.21348233886295 2.5000000000000178
    vertex -10.006991200614996 384.3643287475736 2.5000000000000178
  endloop
endfacet
facet normal -0.0 -0.0 1.0
  outer loop
    vertex -7.956953083986506 385.21348233886295 2.5000000000000178
    vertex -9.624307768249903 383.4404492150623 2.5000000000000178
    vertex -7.956953083986518 352.37200424503465 2.5000000000000178
  endloop
endfacet
facet normal -0.0 -0.0 1.0
  outer loop
    vertex -7.956953083986506 385.21348233886295 2.5000000000000178
    vertex -7.956953083986518 352.37200424503465 2.5000000000000178
    vertex -6.6570293172435555 356.83951829194876 2.5000000000000178
  endloop
endfacet
facet normal -0.0 -0.0 1.0
  outer loop
    vertex -6.6570293172435555 356.83951829194876 2.5000000000000178
    vertex -7.956953083986518 352.37200424503465 2.5000000000000178
    vertex -3.557029317243662 351.7927432919488 2.5000000000000178
  endloop
endfacet
facet normal -0.0 -0.0 1.0
  outer loop
    vertex -7.956953083986506 385.21348233886295 2.5000000000000178
    vertex -6.6570293172435555 356.83951829194876 2.5000000000000178
    vertex -6.657029317243661 368.7927432919488 2.5000000000000178
  endloop
endfacet
facet normal -0.0 -0.0 1.0
  outer loop
    vertex -6.6570293172435555 356.83951829194876 2.5000000000000178
    vertex -3.557029317243662 351.7927432919488 2.5000000000000178
    vertex -3.5570293172435683 353.73951829194874 2.5000000000000178
  endloop
endfacet
facet normal -0.0 -0.0 1.0
  outer loop
    vertex -3.5570293172435683 353.73951829194874 2.5000000000000178
    vertex -3.557029317243662 351.7927432919488 2.5000000000000178
    vertex 0.842894449499189 352.37200424503465 2.5000000000000178
  endloop
endfacet
facet normal -0.0 -0.0 1.0
  outer loop
    vertex -3.5570293172435683 353.73951829194874 2.5000000000000178
    vertex 0.842894449499189 352.37200424503465 2.5000000000000178
    vertex -0.45702931724355567 356.83951829194876 2.5000000000000178
  endloop
endfacet
facet normal -0.0 -0.0 1.0
  outer loop
    vertex -0.45702931724355567 356.83951829194876 2.5000000000000178
    vertex 0.842894449499189 352.37200424503465 2.5000000000000178
    vertex -0.4570293172435345 368.7927432919488 2.5000000000000178
  endloop
endfacet
facet normal -0.0 -0.0 1.0
  outer loop
    vertex -6.6570293172435555 356.83951829194876 2.5000000000000178
    vertex -3.5570293172436616 365.6927432919488 2.5000000000000178
    vertex -6.657029317243661 368.7927432919488 2.5000000000000178
  endloop
endfacet
facet normal -0.0 -0.0 1.0
  outer loop
    vertex -3.5570293172436616 365.6927432919488 2.5000000000000178
    vertex -6.6570293172435555 356.83951829194876 2.5000000000000178
    vertex -3.557029317243566 359.9395182919488 2.5000000000000178
  endloop
endfacet
facet normal -0.0 -0.0 1.0
  outer loop
    vertex -3.5570293172436616 365.6927432919488 2.5000000000000178
    vertex -3.557029317243566 359.9395182919488 2.5000000000000178
    vertex -0.4570293172435345 368.7927432919488 2.5000000000000178
  endloop
endfacet
facet normal -0.0 -0.0 1.0
  outer loop
    vertex -0.4570293172435345 368.7927432919488 2.5000000000000178
    vertex -3.557029317243566 359.9395182919488 2.5000000000000178
    vertex -0.45702931724355567 356.83951829194876 2.5000000000000178
  endloop
endfacet
facet normal -0.0 -0.0 1.0
  outer loop
    vertex -18.204735240357163 362.7254648409424 2.5000000000000178
    vertex -18.610254317243662 368.7927432919488 2.5000000000000178
    vertex -19.128614772868453 362.3427814085773 2.5000000000000178
  endloop
endfacet
facet normal -0.0 -0.0 1.0
  outer loop
    vertex -18.610254317243662 368.7927432919488 2.5000000000000178
    vertex -18.204735240357163 362.7254648409424 2.5000000000000178
    vertex -15.51025431724366 365.6927432919488 2.5000000000000178
  endloop
endfacet
facet normal -0.0 -0.0 1.0
  outer loop
    vertex -15.51025431724366 365.6927432919488 2.5000000000000178
    vertex -18.204735240357163 362.7254648409424 2.5000000000000178
    vertex -14.870737816228381 357.479034792964 2.5000000000000178
  endloop
endfacet
facet normal -0.0 -0.0 1.0
  outer loop
    vertex -15.51025431724366 365.6927432919488 2.5000000000000178
    vertex -14.870737816228381 357.479034792964 2.5000000000000178
    vertex -12.41025431724366 368.7927432919488 2.5000000000000178
  endloop
endfacet
facet normal -0.0 -0.0 1.0
  outer loop
    vertex -12.41025431724366 368.7927432919488 2.5000000000000178
    vertex -14.870737816228381 357.479034792964 2.5000000000000178
    vertex -9.624307768249919 354.14503736883523 2.5000000000000178
  endloop
endfacet
facet normal -0.0 -0.0 1.0
  outer loop
    vertex -7.956953083986518 352.37200424503465 2.5000000000000178
    vertex -9.624307768249919 354.14503736883523 2.5000000000000178
    vertex -10.006991200615 353.2211578363239 2.5000000000000178
  endloop
endfacet
facet normal -0.0 -0.0 1.0
  outer loop
    vertex -9.624307768249919 354.14503736883523 2.5000000000000178
    vertex -7.956953083986518 352.37200424503465 2.5000000000000178
    vertex -9.624307768249903 383.4404492150623 2.5000000000000178
  endloop
endfacet
facet normal -0.0 -0.0 1.0
  outer loop
    vertex -19.97776836415782 364.39281952520594 2.5000000000000178
    vertex -19.977768364157818 373.19266705869165 2.5000000000000178
    vertex -20.557029317243664 368.7927432919488 2.5000000000000178
  endloop
endfacet
facet normal -0.0 -0.0 1.0
  outer loop
    vertex -19.977768364157818 373.19266705869165 2.5000000000000178
    vertex -19.97776836415782 364.39281952520594 2.5000000000000178
    vertex -19.128614772868453 362.3427814085773 2.5000000000000178
  endloop
endfacet
facet normal -0.0 -0.0 1.0
  outer loop
    vertex -19.977768364157818 373.19266705869165 2.5000000000000178
    vertex -19.128614772868453 362.3427814085773 2.5000000000000178
    vertex -19.12861477286847 375.2427051753202 2.5000000000000178
  endloop
endfacet
facet normal -0.0 -0.0 1.0
  outer loop
    vertex -19.12861477286847 375.2427051753202 2.5000000000000178
    vertex -19.128614772868453 362.3427814085773 2.5000000000000178
    vertex -18.204735240357174 374.86002174295515 2.5000000000000178
  endloop
endfacet
facet normal -0.0 -0.0 1.0
  outer loop
    vertex -18.204735240357174 374.86002174295515 2.5000000000000178
    vertex -19.128614772868453 362.3427814085773 2.5000000000000178
    vertex -18.610254317243662 368.7927432919488 2.5000000000000178
  endloop
endfacet
facet normal -0.0 -0.0 1.0
  outer loop
    vertex -18.204735240357174 374.86002174295515 2.5000000000000178
    vertex -18.610254317243662 368.7927432919488 2.5000000000000178
    vertex -15.51025431724366 371.89274329194876 2.5000000000000178
  endloop
endfacet
facet normal -0.0 -0.0 1.0
  outer loop
    vertex -18.204735240357174 374.86002174295515 2.5000000000000178
    vertex -15.51025431724366 371.89274329194876 2.5000000000000178
    vertex -14.870737816228372 380.1064517909336 2.5000000000000178
  endloop
endfacet
facet normal -0.0 -0.0 1.0
  outer loop
    vertex -14.870737816228372 380.1064517909336 2.5000000000000178
    vertex -15.51025431724366 371.89274329194876 2.5000000000000178
    vertex -12.41025431724366 368.7927432919488 2.5000000000000178
  endloop
endfacet
facet normal -0.0 -0.0 1.0
  outer loop
    vertex -14.870737816228372 380.1064517909336 2.5000000000000178
    vertex -12.41025431724366 368.7927432919488 2.5000000000000178
    vertex -9.624307768249903 383.4404492150623 2.5000000000000178
  endloop
endfacet
facet normal -0.0 -0.0 1.0
  outer loop
    vertex -9.624307768249903 383.4404492150623 2.5000000000000178
    vertex -12.41025431724366 368.7927432919488 2.5000000000000178
    vertex -9.624307768249919 354.14503736883523 2.5000000000000178
  endloop
endfacet
facet normal -0.0 -0.0 1.0
  outer loop
    vertex -7.956953083986506 385.21348233886295 2.5000000000000178
    vertex -6.65702931724355 380.7459682919488 2.5000000000000178
    vertex -3.5570293172436585 385.7927432919488 2.5000000000000178
  endloop
endfacet
facet normal -0.0 -0.0 1.0
  outer loop
    vertex -6.65702931724355 380.7459682919488 2.5000000000000178
    vertex -7.956953083986506 385.21348233886295 2.5000000000000178
    vertex -6.657029317243661 368.7927432919488 2.5000000000000178
  endloop
endfacet
facet normal -0.0 -0.0 1.0
  outer loop
    vertex -3.5570293172436585 385.7927432919488 2.5000000000000178
    vertex -6.65702931724355 380.7459682919488 2.5000000000000178
    vertex -3.55702931724355 383.8459682919488 2.5000000000000178
  endloop
endfacet
facet normal -0.0 -0.0 1.0
  outer loop
    vertex -3.5570293172436585 385.7927432919488 2.5000000000000178
    vertex -3.55702931724355 383.8459682919488 2.5000000000000178
    vertex 0.8428944494992031 385.21348233886295 2.5000000000000178
  endloop
endfacet
facet normal -0.0 -0.0 1.0
  outer loop
    vertex 0.8428944494992031 385.21348233886295 2.5000000000000178
    vertex -3.55702931724355 383.8459682919488 2.5000000000000178
    vertex -0.45702931724355 380.7459682919488 2.5000000000000178
  endloop
endfacet
facet normal -0.0 -0.0 1.0
  outer loop
    vertex 0.8428944494992031 385.21348233886295 2.5000000000000178
    vertex -0.45702931724355 380.7459682919488 2.5000000000000178
    vertex -0.4570293172435345 368.7927432919488 2.5000000000000178
  endloop
endfacet
facet normal -0.0 -0.0 1.0
  outer loop
    vertex 0.8428944494992031 385.21348233886295 2.5000000000000178
    vertex -0.4570293172435345 368.7927432919488 2.5000000000000178
    vertex 0.842894449499189 352.37200424503465 2.5000000000000178
  endloop
endfacet
facet normal -0.0 -0.0 1.0
  outer loop
    vertex 0.8428944494992031 385.21348233886295 2.5000000000000178
    vertex 0.842894449499189 352.37200424503465 2.5000000000000178
    vertex 2.510249133762749 354.14503736883535 2.5000000000000178
  endloop
endfacet
facet normal -0.0 -0.0 1.0
  outer loop
    vertex 2.510249133762749 354.14503736883535 2.5000000000000178
    vertex 0.842894449499189 352.37200424503465 2.5000000000000178
    vertex 2.892932566127843 353.22115783632404 2.5000000000000178
  endloop
endfacet
facet normal -0.0 -0.0 1.0
  outer loop
    vertex 0.8428944494992031 385.21348233886295 2.5000000000000178
    vertex 2.510249133762749 354.14503736883535 2.5000000000000178
    vertex 2.5102491337627466 383.44044921506224 2.5000000000000178
  endloop
endfacet
facet normal -0.0 -0.0 1.0
  outer loop
    vertex 7.75667918174114 357.47903479296406 2.5000000000000178
    vertex 5.296195682756465 368.7927432919488 2.5000000000000178
    vertex 2.510249133762749 354.14503736883535 2.5000000000000178
  endloop
endfacet
facet normal -0.0 -0.0 1.0
  outer loop
    vertex 5.296195682756465 368.7927432919488 2.5000000000000178
    vertex 7.75667918174114 357.47903479296406 2.5000000000000178
    vertex 8.396195682756465 365.6927432919488 2.5000000000000178
  endloop
endfacet
facet normal -0.0 -0.0 1.0
  outer loop
    vertex 8.396195682756465 365.6927432919488 2.5000000000000178
    vertex 7.75667918174114 357.47903479296406 2.5000000000000178
    vertex 11.09067660586986 362.7254648409425 2.5000000000000178
  endloop
endfacet
facet normal -0.0 -0.0 1.0
  outer loop
    vertex 8.396195682756465 365.6927432919488 2.5000000000000178
    vertex 11.09067660586986 362.7254648409425 2.5000000000000178
    vertex 11.496195682756465 368.7927432919488 2.5000000000000178
  endloop
endfacet
facet normal -0.0 -0.0 1.0
  outer loop
    vertex 11.496195682756465 368.7927432919488 2.5000000000000178
    vertex 11.09067660586986 362.7254648409425 2.5000000000000178
    vertex 12.014556138381154 362.3427814085774 2.5000000000000178
  endloop
endfacet
facet normal -0.0 -0.0 1.0
  outer loop
    vertex 2.5102491337627466 383.44044921506224 2.5000000000000178
    vertex 5.296195682756465 368.7927432919488 2.5000000000000178
    vertex 7.7566791817411485 380.1064517909335 2.5000000000000178
  endloop
endfacet
facet normal -0.0 -0.0 1.0
  outer loop
    vertex 5.296195682756465 368.7927432919488 2.5000000000000178
    vertex 2.5102491337627466 383.44044921506224 2.5000000000000178
    vertex 2.510249133762749 354.14503736883535 2.5000000000000178
  endloop
endfacet
facet normal -0.0 -0.0 1.0
  outer loop
    vertex 7.7566791817411485 380.1064517909335 2.5000000000000178
    vertex 5.296195682756465 368.7927432919488 2.5000000000000178
    vertex 8.396195682756465 371.8927432919488 2.5000000000000178
  endloop
endfacet
facet normal -0.0 -0.0 1.0
  outer loop
    vertex 7.7566791817411485 380.1064517909335 2.5000000000000178
    vertex 8.396195682756465 371.8927432919488 2.5000000000000178
    vertex 11.090676605869888 374.8600217429551 2.5000000000000178
  endloop
endfacet
facet normal -0.0 -0.0 1.0
  outer loop
    vertex 11.090676605869888 374.8600217429551 2.5000000000000178
    vertex 8.396195682756465 371.8927432919488 2.5000000000000178
    vertex 11.496195682756465 368.7927432919488 2.5000000000000178
  endloop
endfacet
facet normal -0.0 -0.0 1.0
  outer loop
    vertex 11.090676605869888 374.8600217429551 2.5000000000000178
    vertex 11.496195682756465 368.7927432919488 2.5000000000000178
    vertex 12.014556138381163 375.2427051753202 2.5000000000000178
  endloop
endfacet
facet normal -0.0 -0.0 1.0
  outer loop
    vertex 12.014556138381163 375.2427051753202 2.5000000000000178
    vertex 11.496195682756465 368.7927432919488 2.5000000000000178
    vertex 12.014556138381154 362.3427814085774 2.5000000000000178
  endloop
endfacet
facet normal -0.0 -0.0 1.0
  outer loop
    vertex 12.014556138381163 375.2427051753202 2.5000000000000178
    vertex 12.014556138381154 362.3427814085774 2.5000000000000178
    vertex 12.863709729670497 364.39281952520594 2.5000000000000178
  endloop
endfacet
facet normal -0.0 -0.0 1.0
  outer loop
    vertex 12.014556138381163 375.2427051753202 2.5000000000000178
    vertex 12.863709729670497 364.39281952520594 2.5000000000000178
    vertex 12.863709729670504 373.19266705869165 2.5000000000000178
  endloop
endfacet
facet normal -0.0 -0.0 1.0
  outer loop
    vertex 12.863709729670504 373.19266705869165 2.5000000000000178
    vertex 12.863709729670497 364.39281952520594 2.5000000000000178
    vertex 13.442970682756338 368.7927432919488 2.5000000000000178
  endloop
endfacet
facet normal -0.0 -0.0 1.0
  outer loop
    vertex 2.8929325661278478 384.36432874757355 2.5000000000000178
    vertex 0.8428944494992031 385.21348233886295 2.5000000000000178
    vertex 2.5102491337627466 383.44044921506224 2.5000000000000178
  endloop
endfacet
facet normal 0.0 0.0 1.0
  outer loop
    vertex 2.892932566127843 353.22115783632404 7.8000000000000185
    vertex 7.75667918174114 357.47903479296406 7.8000000000000185
    vertex 2.510249133762749 354.14503736883535 7.8000000000000185
  endloop
endfacet
facet normal 0.0 0.0 1.0
  outer loop
    vertex 7.75667918174114 357.47903479296406 7.8000000000000185
    vertex 2.892932566127843 353.22115783632404 7.8000000000000185
    vertex 4.942970682756334 354.0703114276133 7.8000000000000185
  endloop
endfacet
facet normal 0.0 0.0 1.0
  outer loop
    vertex 7.75667918174114 357.47903479296406 7.8000000000000185
    vertex 4.942970682756334 354.0703114276133 7.8000000000000185
    vertex 8.463785962927645 356.7719280117775 7.8000000000000185
  endloop
endfacet
facet normal 0.0 0.0 1.0
  outer loop
    vertex 7.75667918174114 357.47903479296406 7.8000000000000185
    vertex 8.463785962927645 356.7719280117775 7.8000000000000185
    vertex 11.09067660586986 362.7254648409425 7.8000000000000185
  endloop
endfacet
facet normal 0.0 0.0 1.0
  outer loop
    vertex 11.09067660586986 362.7254648409425 7.8000000000000185
    vertex 8.463785962927645 356.7719280117775 7.8000000000000185
    vertex 11.165402547091793 360.2927432919488 7.8000000000000185
  endloop
endfacet
facet normal 0.0 0.0 1.0
  outer loop
    vertex 11.09067660586986 362.7254648409425 7.8000000000000185
    vertex 11.165402547091793 360.2927432919488 7.8000000000000185
    vertex 12.014556138381154 362.3427814085774 7.8000000000000185
  endloop
endfacet
facet normal 0.38268343236507363 0.9238795325112935 0.0
  outer loop
    vertex 11.09067660586986 362.7254648409425 7.8000000000000185
    vertex 12.014556138381154 362.3427814085774 2.5000000000000178
    vertex 11.09067660586986 362.7254648409425 2.5000000000000178
  endloop
endfacet
facet normal 0.38268343236507363 0.9238795325112935 0.0
  outer loop
    vertex 12.014556138381154 362.3427814085774 2.5000000000000178
    vertex 11.09067660586986 362.7254648409425 7.8000000000000185
    vertex 12.014556138381154 362.3427814085774 7.8000000000000185
  endloop
endfacet
facet normal -0.8439994060924008 0.5363441083070409 0.0
  outer loop
    vertex 11.09067660586986 362.7254648409425 7.8000000000000185
    vertex 7.75667918174114 357.47903479296406 2.5000000000000178
    vertex 7.75667918174114 357.47903479296406 7.8000000000000185
  endloop
endfacet
facet normal -0.8439994060924008 0.5363441083070409 0.0
  outer loop
    vertex 7.75667918174114 357.47903479296406 2.5000000000000178
    vertex 11.09067660586986 362.7254648409425 7.8000000000000185
    vertex 11.09067660586986 362.7254648409425 2.5000000000000178
  endloop
endfacet
facet normal -0.5363441083070449 0.8439994060923982 0.0
  outer loop
    vertex 2.510249133762749 354.14503736883535 7.8000000000000185
    vertex 7.75667918174114 357.47903479296406 2.5000000000000178
    vertex 2.510249133762749 354.14503736883535 2.5000000000000178
  endloop
endfacet
facet normal -0.5363441083070449 0.8439994060923982 0.0
  outer loop
    vertex 7.75667918174114 357.47903479296406 2.5000000000000178
    vertex 2.510249133762749 354.14503736883535 7.8000000000000185
    vertex 7.75667918174114 357.47903479296406 7.8000000000000185
  endloop
endfacet
facet normal -0.9238795325112875 -0.3826834323650884 -0.0
  outer loop
    vertex 2.510249133762749 354.14503736883535 7.8000000000000185
    vertex 2.892932566127843 353.22115783632404 2.5000000000000178
    vertex 2.892932566127843 353.22115783632404 7.8000000000000185
  endloop
endfacet
facet normal -0.9238795325112875 -0.3826834323650884 -0.0
  outer loop
    vertex 2.892932566127843 353.22115783632404 2.5000000000000178
    vertex 2.510249133762749 354.14503736883535 7.8000000000000185
    vertex 2.510249133762749 354.14503736883535 2.5000000000000178
  endloop
endfacet
facet normal 0.0 0.0 1.0
  outer loop
    vertex -18.27946118157912 360.2927432919488 7.8000000000000185
    vertex -18.204735240357163 362.7254648409424 7.8000000000000185
    vertex -19.128614772868453 362.3427814085773 7.8000000000000185
  endloop
endfacet
facet normal 0.0 0.0 1.0
  outer loop
    vertex -18.204735240357163 362.7254648409424 7.8000000000000185
    vertex -18.27946118157912 360.2927432919488 7.8000000000000185
    vertex -15.57784459741497 356.7719280117775 7.8000000000000185
  endloop
endfacet
facet normal 0.0 0.0 1.0
  outer loop
    vertex -18.204735240357163 362.7254648409424 7.8000000000000185
    vertex -15.57784459741497 356.7719280117775 7.8000000000000185
    vertex -14.870737816228381 357.479034792964 7.8000000000000185
  endloop
endfacet
facet normal 0.0 0.0 1.0
  outer loop
    vertex -14.870737816228381 357.479034792964 7.8000000000000185
    vertex -15.57784459741497 356.7719280117775 7.8000000000000185
    vertex -12.057029317243662 354.0703114276133 7.8000000000000185
  endloop
endfacet
facet normal 0.0 0.0 1.0
  outer loop
    vertex -14.870737816228381 357.479034792964 7.8000000000000185
    vertex -12.057029317243662 354.0703114276133 7.8000000000000185
    vertex -9.624307768249919 354.14503736883523 7.8000000000000185
  endloop
endfacet
facet normal 0.0 0.0 1.0
  outer loop
    vertex -9.624307768249919 354.14503736883523 7.8000000000000185
    vertex -12.057029317243662 354.0703114276133 7.8000000000000185
    vertex -10.006991200615 353.2211578363239 7.8000000000000185
  endloop
endfacet
facet normal 0.9238795325112921 -0.38268343236507724 0.0
  outer loop
    vertex -9.624307768249919 354.14503736883523 2.5000000000000178
    vertex -10.006991200615 353.2211578363239 7.8000000000000185
    vertex -10.006991200615 353.2211578363239 2.5000000000000178
  endloop
endfacet
facet normal 0.9238795325112921 -0.38268343236507724 0.0
  outer loop
    vertex -10.006991200615 353.2211578363239 7.8000000000000185
    vertex -9.624307768249919 354.14503736883523 2.5000000000000178
    vertex -9.624307768249919 354.14503736883523 7.8000000000000185
  endloop
endfacet
facet normal 0.5363441083070398 0.8439994060924014 0.0
  outer loop
    vertex -14.870737816228381 357.479034792964 7.8000000000000185
    vertex -9.624307768249919 354.14503736883523 2.5000000000000178
    vertex -14.870737816228381 357.479034792964 2.5000000000000178
  endloop
endfacet
facet normal 0.5363441083070398 0.8439994060924014 0.0
  outer loop
    vertex -9.624307768249919 354.14503736883523 2.5000000000000178
    vertex -14.870737816228381 357.479034792964 7.8000000000000185
    vertex -9.624307768249919 354.14503736883523 7.8000000000000185
  endloop
endfacet
facet normal 0.8439994060923964 0.5363441083070478 0.0
  outer loop
    vertex -18.204735240357163 362.7254648409424 2.5000000000000178
    vertex -14.870737816228381 357.479034792964 7.8000000000000185
    vertex -14.870737816228381 357.479034792964 2.5000000000000178
  endloop
endfacet
facet normal 0.8439994060923964 0.5363441083070478 0.0
  outer loop
    vertex -14.870737816228381 357.479034792964 7.8000000000000185
    vertex -18.204735240357163 362.7254648409424 2.5000000000000178
    vertex -18.204735240357163 362.7254648409424 7.8000000000000185
  endloop
endfacet
facet normal -0.3826834323650751 0.9238795325112928 0.0
  outer loop
    vertex -19.128614772868453 362.3427814085773 7.8000000000000185
    vertex -18.204735240357163 362.7254648409424 2.5000000000000178
    vertex -19.128614772868453 362.3427814085773 2.5000000000000178
  endloop
endfacet
facet normal -0.3826834323650751 0.9238795325112928 0.0
  outer loop
    vertex -18.204735240357163 362.7254648409424 2.5000000000000178
    vertex -19.128614772868453 362.3427814085773 7.8000000000000185
    vertex -18.204735240357163 362.7254648409424 7.8000000000000185
  endloop
endfacet
facet normal 0.0 0.0 1.0
  outer loop
    vertex -18.204735240357174 374.86002174295515 7.8000000000000185
    vertex -18.279461181579116 377.2927432919488 7.8000000000000185
    vertex -19.12861477286847 375.2427051753202 7.8000000000000185
  endloop
endfacet
facet normal 0.0 0.0 1.0
  outer loop
    vertex -18.279461181579116 377.2927432919488 7.8000000000000185
    vertex -18.204735240357174 374.86002174295515 7.8000000000000185
    vertex -15.57784459741497 380.8135585721201 7.8000000000000185
  endloop
endfacet
facet normal 0.0 0.0 1.0
  outer loop
    vertex -15.57784459741497 380.8135585721201 7.8000000000000185
    vertex -18.204735240357174 374.86002174295515 7.8000000000000185
    vertex -14.870737816228372 380.1064517909336 7.8000000000000185
  endloop
endfacet
facet normal 0.0 0.0 1.0
  outer loop
    vertex -15.57784459741497 380.8135585721201 7.8000000000000185
    vertex -14.870737816228372 380.1064517909336 7.8000000000000185
    vertex -12.057029317243648 383.5151751562842 7.8000000000000185
  endloop
endfacet
facet normal 0.0 0.0 1.0
  outer loop
    vertex -12.057029317243648 383.5151751562842 7.8000000000000185
    vertex -14.870737816228372 380.1064517909336 7.8000000000000185
    vertex -9.624307768249903 383.4404492150623 7.8000000000000185
  endloop
endfacet
facet normal 0.0 0.0 1.0
  outer loop
    vertex -12.057029317243648 383.5151751562842 7.8000000000000185
    vertex -9.624307768249903 383.4404492150623 7.8000000000000185
    vertex -10.006991200614996 384.3643287475736 7.8000000000000185
  endloop
endfacet
facet normal -0.3826834323650722 -0.9238795325112942 -0.0
  outer loop
    vertex -18.204735240357174 374.86002174295515 7.8000000000000185
    vertex -19.12861477286847 375.2427051753202 2.5000000000000178
    vertex -18.204735240357174 374.86002174295515 2.5000000000000178
  endloop
endfacet
facet normal -0.3826834323650722 -0.9238795325112942 -0.0
  outer loop
    vertex -19.12861477286847 375.2427051753202 2.5000000000000178
    vertex -18.204735240357174 374.86002174295515 7.8000000000000185
    vertex -19.12861477286847 375.2427051753202 7.8000000000000185
  endloop
endfacet
facet normal 0.843999406092397 -0.5363441083070468 0.0
  outer loop
    vertex -14.870737816228372 380.1064517909336 2.5000000000000178
    vertex -18.204735240357174 374.86002174295515 7.8000000000000185
    vertex -18.204735240357174 374.86002174295515 2.5000000000000178
  endloop
endfacet
facet normal 0.843999406092397 -0.5363441083070468 0.0
  outer loop
    vertex -18.204735240357174 374.86002174295515 7.8000000000000185
    vertex -14.870737816228372 380.1064517909336 2.5000000000000178
    vertex -14.870737816228372 380.1064517909336 7.8000000000000185
  endloop
endfacet
facet normal 0.5363441083070392 -0.8439994060924019 0.0
  outer loop
    vertex -9.624307768249903 383.4404492150623 7.8000000000000185
    vertex -14.870737816228372 380.1064517909336 2.5000000000000178
    vertex -9.624307768249903 383.4404492150623 2.5000000000000178
  endloop
endfacet
facet normal 0.5363441083070392 -0.8439994060924019 0.0
  outer loop
    vertex -14.870737816228372 380.1064517909336 2.5000000000000178
    vertex -9.624307768249903 383.4404492150623 7.8000000000000185
    vertex -14.870737816228372 380.1064517909336 7.8000000000000185
  endloop
endfacet
facet normal 0.9238795325112875 0.38268343236508795 0.0
  outer loop
    vertex -10.006991200614996 384.3643287475736 2.5000000000000178
    vertex -9.624307768249903 383.4404492150623 7.8000000000000185
    vertex -9.624307768249903 383.4404492150623 2.5000000000000178
  endloop
endfacet
facet normal 0.9238795325112875 0.38268343236508795 0.0
  outer loop
    vertex -9.624307768249903 383.4404492150623 7.8000000000000185
    vertex -10.006991200614996 384.3643287475736 2.5000000000000178
    vertex -10.006991200614996 384.3643287475736 7.8000000000000185
  endloop
endfacet
facet normal 0.0 0.0 1.0
  outer loop
    vertex 7.7566791817411485 380.1064517909335 7.8000000000000185
    vertex 2.8929325661278478 384.36432874757355 7.8000000000000185
    vertex 2.5102491337627466 383.44044921506224 7.8000000000000185
  endloop
endfacet
facet normal 0.0 0.0 1.0
  outer loop
    vertex 2.8929325661278478 384.36432874757355 7.8000000000000185
    vertex 7.7566791817411485 380.1064517909335 7.8000000000000185
    vertex 4.9429706827563455 383.5151751562842 7.8000000000000185
  endloop
endfacet
facet normal 0.0 0.0 1.0
  outer loop
    vertex 4.9429706827563455 383.5151751562842 7.8000000000000185
    vertex 7.7566791817411485 380.1064517909335 7.8000000000000185
    vertex 8.463785962927652 380.8135585721201 7.8000000000000185
  endloop
endfacet
facet normal 0.0 0.0 1.0
  outer loop
    vertex 8.463785962927652 380.8135585721201 7.8000000000000185
    vertex 7.7566791817411485 380.1064517909335 7.8000000000000185
    vertex 11.090676605869888 374.8600217429551 7.8000000000000185
  endloop
endfacet
facet normal 0.0 0.0 1.0
  outer loop
    vertex 8.463785962927652 380.8135585721201 7.8000000000000185
    vertex 11.090676605869888 374.8600217429551 7.8000000000000185
    vertex 11.1654025470918 377.2927432919488 7.8000000000000185
  endloop
endfacet
facet normal 0.0 0.0 1.0
  outer loop
    vertex 11.1654025470918 377.2927432919488 7.8000000000000185
    vertex 11.090676605869888 374.8600217429551 7.8000000000000185
    vertex 12.014556138381163 375.2427051753202 7.8000000000000185
  endloop
endfacet
facet normal -0.9238795325112849 0.38268343236509433 0.0
  outer loop
    vertex 2.8929325661278478 384.36432874757355 7.8000000000000185
    vertex 2.5102491337627466 383.44044921506224 2.5000000000000178
    vertex 2.5102491337627466 383.44044921506224 7.8000000000000185
  endloop
endfacet
facet normal -0.9238795325112849 0.38268343236509433 0.0
  outer loop
    vertex 2.5102491337627466 383.44044921506224 2.5000000000000178
    vertex 2.8929325661278478 384.36432874757355 7.8000000000000185
    vertex 2.8929325661278478 384.36432874757355 2.5000000000000178
  endloop
endfacet
facet normal -0.5363441083070443 -0.8439994060923987 -0.0
  outer loop
    vertex 7.7566791817411485 380.1064517909335 7.8000000000000185
    vertex 2.5102491337627466 383.44044921506224 2.5000000000000178
    vertex 7.7566791817411485 380.1064517909335 2.5000000000000178
  endloop
endfacet
facet normal -0.5363441083070443 -0.8439994060923987 -0.0
  outer loop
    vertex 2.5102491337627466 383.44044921506224 2.5000000000000178
    vertex 7.7566791817411485 380.1064517909335 7.8000000000000185
    vertex 2.5102491337627466 383.44044921506224 7.8000000000000185
  endloop
endfacet
facet normal -0.8439994060923995 -0.536344108307043 -0.0
  outer loop
    vertex 7.7566791817411485 380.1064517909335 7.8000000000000185
    vertex 11.090676605869888 374.8600217429551 2.5000000000000178
    vertex 11.090676605869888 374.8600217429551 7.8000000000000185
  endloop
endfacet
facet normal -0.8439994060923995 -0.536344108307043 -0.0
  outer loop
    vertex 11.090676605869888 374.8600217429551 2.5000000000000178
    vertex 7.7566791817411485 380.1064517909335 7.8000000000000185
    vertex 7.7566791817411485 380.1064517909335 2.5000000000000178
  endloop
endfacet
facet normal 0.38268343236511865 -0.9238795325112749 0.0
  outer loop
    vertex 12.014556138381163 375.2427051753202 7.8000000000000185
    vertex 11.090676605869888 374.8600217429551 2.5000000000000178
    vertex 12.014556138381163 375.2427051753202 2.5000000000000178
  endloop
endfacet
facet normal 0.38268343236511865 -0.9238795325112749 0.0
  outer loop
    vertex 11.090676605869888 374.8600217429551 2.5000000000000178
    vertex 12.014556138381163 375.2427051753202 7.8000000000000185
    vertex 11.090676605869888 374.8600217429551 7.8000000000000185
  endloop
endfacet
endsolid buttons_holder
